<svg xmlns="http://www.w3.org/2000/svg" viewBox="0 0 100 100" width="64" height="64"><path fill="currentColor" fill-rule="evenodd" clip-rule="evenodd" d="M48.854 0C21.839 0 0 22 0 49.217c0 21.756 13.993 40.172 33.4 46.68 2.447.453 3.337-.1.337-2.378 0-1.165-.04-4.25-.06-8.343-13.59 2.978-16.46-6.6-16.46-6.6-2.222-5.69-5.423-7.2-5.423-7.2-4.436-3.06.336-3 .336-3 4.905.35 7.486 5.07 7.486 5.07 4.36 7.54 11.44 5.36 14.225 4.1 0-3.3.56-5.36 1.4-6.6-10.85-1.24-22.25-5.47-22.25-24.36 0-5.38 1.9-9.77 5.07-13.2-.5-1.24-2.2-6.25.48-13.01 0 0 4.1-1.33 13.5 5.07 3.9-1.1 8.1-1.65 12.3-1.67 4.2.02 8.4.57 12.3 1.67 9.4-6.4 13.5-5.07 13.5-5.07 2.7 6.76.9 11.77.5 13.01 3.2 3.43 5.1 7.82 5.1 13.2 0 18.94-11.4 23.1-22.3 24.32 1.8 1.54 3.4 4.59 3.4 9.25 0 6.68-.06 12.07-.06 13.71 0 1.34.89 2.89 3.4 2.38C86.01 89.39 100 70.97 100 49.217 100 22 78.16 0 51.146 0z"/></svg>