<svg xmlns="http://www.w3.org/2000/svg" viewBox="0 0 512 512" width="64" height="64"><path fill="#E34F26" d="M71,460 L37,0 L475,0 L441,460 L256,512 Z"/><path fill="#EF652A" d="M256,472 L408,430 L435,70 L256,70 Z"/><path fill="#EFEFEF" d="M256,208 L181,208 L176,150 L256,150 L256,92 L118,92 L130,266 L256,266 Z M256,352 L256,412 L197,396 L193,356 L135,356 L143,446 L256,477 Z"/><path fill="#FFFFFF" d="M256,208 L256,266 L329,266 L322,342 L256,360 L256,418 L315,402 L323,312 L332,208 Z M256,92 L256,150 L388,150 L393,92 Z"/></svg>