<svg xmlns="http://www.w3.org/2000/svg" viewBox="0 0 512 512" width="64" height="64"><rect width="512" height="512" fill="#F7DF1E" rx="32"/><path d="M312,410 C322,425 338,438 360,438 C382,438 395,425 395,406 C395,388 381,378 358,368 L343,361 C313,348 291,332 291,296 C291,258 321,235 363,235 C400,235 423,251 436,277 L390,305 C382,291 372,284 359,284 C346,284 338,292 338,302 C338,314 348,321 366,329 L381,335 C419,352 443,369 443,406 C443,448 410,488 358,488 C308,488 277,458 262,427 Z M195,414 C203,428 214,438 230,438 C244,438 253,430 253,398 L253,239 L303,239 L303,398 C303,458 269,488 223,488 C186,488 162,465 149,434 Z" fill="#000000"/></svg>