<svg xmlns="http://www.w3.org/2000/svg" viewBox="0 0 54 33" width="64" height="64"><path fill="#38BDF8" d="M27,0 C21.6,0 17.55,2.7 14.85,8.1 C20.25,8.1 22.95,5.4 22.95,0 C22.95,0 20.25,2.7 14.85,2.7 C9.45,2.7 5.4,5.4 2.7,10.8 C8.1,10.8 10.8,8.1 10.8,2.7 C10.8,10.8 6.75,13.5 1.35,18.9 C6.75,18.9 9.45,16.2 9.45,10.8 C9.45,10.8 12.15,13.5 17.55,13.5 C22.95,13.5 27,10.8 29.7,5.4 C24.3,5.4 21.6,8.1 21.6,13.5 C21.6,5.4 24.3,2.7 29.7,0 Z M27,18.9 C21.6,18.9 17.55,21.6 14.85,27 C20.25,27 22.95,24.3 22.95,18.9 C22.95,18.9 20.25,21.6 14.85,21.6 C9.45,21.6 5.4,24.3 2.7,29.7 C8.1,29.7 10.8,27 10.8,21.6 C10.8,29.7 6.75,32.4 1.35,37.8 C6.75,37.8 9.45,35.1 9.45,29.7 C9.45,29.7 12.15,32.4 17.55,32.4 C22.95,32.4 27,29.7 29.7,24.3 C24.3,24.3 21.6,27 21.6,32.4 C21.6,24.3 24.3,21.6 29.7,18.9 Z"/></svg>