<svg xmlns="http://www.w3.org/2000/svg" viewBox="0 0 512 512" width="64" height="64"><rect width="512" height="512" fill="#3178C6" rx="32"/><path d="M312,410 C322,425 338,438 360,438 C382,438 395,425 395,406 C395,388 381,378 358,368 L343,361 C313,348 291,332 291,296 C291,258 321,235 363,235 C400,235 423,251 436,277 L390,305 C382,291 372,284 359,284 C346,284 338,292 338,302 C338,314 348,321 366,329 L381,335 C419,352 443,369 443,406 C443,448 410,488 358,488 C308,488 277,458 262,427 Z M122,286 L122,239 L257,239 L257,286 L189,286 L189,480 L140,480 L140,286 Z" fill="#FFFFFF"/></svg>