<?xml version="1.0" encoding="UTF-8"?>
<svg version="1.1" xmlns="http://www.w3.org/2000/svg" width="1536" height="1024">
<path d="M0 0 C506.88 0 1013.76 0 1536 0 C1536 337.92 1536 675.84 1536 1024 C1029.12 1024 522.24 1024 0 1024 C0 686.08 0 348.16 0 0 Z " fill="#000000" transform="translate(0,0)"/>
<path d="M0 0 C3.06224932 1.53112466 4.83850679 2.55180958 7.28515625 4.72265625 C8.19648315 5.52364746 8.19648315 5.52364746 9.1262207 6.34082031 C9.76519287 6.90897461 10.40416504 7.47712891 11.0625 8.0625 C15.58571723 12.03859361 20.12513877 15.96662987 24.8125 19.75 C29.16938253 23.27669369 33.32675904 26.97502089 37.46875 30.75 C40.0884481 33.07862053 42.7751531 35.29562947 45.5 37.5 C49.96420457 41.11149134 54.23002114 44.88660694 58.47265625 48.75390625 C61.06962393 51.06187598 63.73404013 53.25555863 66.4375 55.4375 C71.20996203 59.29708603 75.73109109 63.37199991 80.24609375 67.52734375 C83.83207284 70.74709519 87.56701492 73.75905176 91.31640625 76.78515625 C94.80550916 79.66480887 98.12996921 82.70693876 101.47265625 85.75390625 C104.06962393 88.06187598 106.73404013 90.25555863 109.4375 92.4375 C114.211403 96.29825137 118.73388428 100.37437075 123.25 104.53125 C125.93737634 106.94378104 128.68965444 109.2325621 131.5 111.5 C136.25739668 115.33835414 140.75783918 119.39622359 145.25390625 123.53515625 C148.78085065 126.70087732 152.46027727 129.65150358 156.15234375 132.62109375 C159.91033669 135.76048703 163.48652727 139.07911551 167.02905273 142.45874023 C169.36370887 144.65403755 170.91486596 145.97162199 174 147 C176.31836088 145.55827044 176.31836088 145.55827044 178.75 143.375 C180.21759766 142.12783203 180.21759766 142.12783203 181.71484375 140.85546875 C182.81056754 139.90441917 183.9055893 138.95256031 185 138 C186.18849816 136.97490794 187.37730986 135.9501793 188.56640625 134.92578125 C191.10536447 132.73368255 193.63847155 130.53503866 196.16796875 128.33203125 C204.19923954 121.34045974 212.2986787 114.42842508 220.4375 107.5625 C229.08459225 100.26547676 237.63109208 92.84963897 246.125 85.375 C249.97573729 81.99730587 253.89199491 78.69777391 257.80566406 75.39355469 C266.78375618 67.81011766 275.689668 60.14369358 284.5625 52.4375 C290.79797798 47.02357753 297.08281039 41.67162277 303.3984375 36.3515625 C305.03928736 34.9668453 306.67638805 33.57781109 308.3125 32.1875 C314.26389217 27.13231748 320.24670607 22.12294171 326.3046875 17.1953125 C328.16975269 15.67623041 330.0287495 14.1496786 331.8828125 12.6171875 C333.30207031 11.44542969 333.30207031 11.44542969 334.75 10.25 C335.59046875 9.55390625 336.4309375 8.8578125 337.296875 8.140625 C340.44506974 5.64754593 343.73221686 3.33413082 347 1 C347 108.25 347 215.5 347 326 C326.21 326 305.42 326 284 326 C283.505 235.91 283.505 235.91 283 144 C279.37 147.3 275.74 150.6 272 154 C269.27641185 156.22269837 266.5527481 158.44536533 263.81640625 160.65234375 C260.25527685 163.62077477 256.87356843 166.75649449 253.48071289 169.91381836 C249.39338994 173.69490558 245.11956756 177.19689966 240.78125 180.6875 C237.22814914 183.64176364 233.8597632 186.76913424 230.47827148 189.91625977 C227.2670095 192.88715628 223.97372185 195.69961077 220.5625 198.4375 C215.78378372 202.28110057 211.30842313 206.36960164 206.83618164 210.55834961 C202.65549095 214.45178419 198.29751453 218.05882095 193.83984375 221.6328125 C189.89555285 224.92062582 186.15108514 228.40767158 182.4140625 231.92773438 C179.71639695 234.46057996 177.02149795 236.85946892 174 239 C169.66665345 237.30712014 166.73146578 234.10229065 163.4375 230.9375 C159.23766053 226.96420789 155.02282853 223.10885427 150.5 219.5 C146.1429658 216.01437264 142.05878467 212.32206333 138 208.5 C133.08693945 203.87379473 128.04878041 199.52729122 122.77734375 195.30859375 C119.57557071 192.64720435 116.53766575 189.84536335 113.5 187 C108.73913345 182.54123309 103.83531923 178.36201964 98.74609375 174.27734375 C95.73680758 171.78173374 92.86064611 169.16231533 90 166.5 C85.47028281 162.28554587 80.81195298 158.30721191 75.9609375 154.4609375 C71.52570655 150.77466376 67.28668037 146.85801233 63 143 C62.67 203.39 62.34 263.78 62 326 C41.54 326 21.08 326 0 326 C0 218.42 0 110.84 0 0 Z " fill="#E0DFDF" transform="translate(588,323)"/>
<path d="M0 0 C79.2 0 158.4 0 240 0 C240 27.06 240 54.12 240 82 C210.96 82 181.92 82 152 82 C152 92.56 152 103.12 152 114 C140.45 114 128.9 114 117 114 C117 122.58 117 131.16 117 140 C128.22 140 139.44 140 151 140 C151.27152711 154.93433923 151.49229772 169.86740364 151.62174606 184.80363178 C151.68346633 191.73986364 151.76750725 198.6744464 151.90527344 205.60961914 C152.03826611 212.30772103 152.10748664 219.00376016 152.13852692 225.70323753 C152.16063398 228.2538461 152.20380758 230.80436509 152.26876068 233.35424232 C152.78356131 254.40871654 152.78356131 254.40871654 148.38049316 259.94784546 C145.56987829 262.79339063 142.38900692 264.88319415 139 267 C137.71121937 268.20997706 136.449318 269.45129437 135.25 270.75 C133.059169 272.98268568 130.80627522 275.05382298 128.421875 277.078125 C123.36738011 281.47444633 118.69885602 286.22994919 114 291 C108.73744604 296.34228963 103.46796233 301.56806265 97.77294922 306.44970703 C95.24018723 308.6643915 92.91208642 311.02926556 90.5625 313.4375 C89.06012696 314.97657223 87.54473193 316.50344685 86 318 C85.67 318 85.34 318 85 318 C85 240.12 85 162.24 85 82 C56.95 82 28.9 82 0 82 C0 54.94 0 27.88 0 0 Z " fill="#EEEDED" transform="translate(985,324)"/>
<path d="M0 0 C0 41.25 0 82.5 0 125 C-17.82 125 -35.64 125 -54 125 C-54 133.58 -54 142.16 -54 151 C-36.51 151 -19.02 151 -1 151 C-1 191.26 -1 231.52 -1 273 C-28.63985615 273 -54.57058621 265.51144893 -77 249 C-77.80179687 248.42121094 -78.60359375 247.84242188 -79.4296875 247.24609375 C-91.14061561 238.35730733 -102.07114146 227.39414718 -110 215 C-110.35755371 214.4544043 -110.71510742 213.90880859 -111.08349609 213.34667969 C-120.66303146 198.64093063 -126.52801876 182.9046786 -131 166 C-131.18401367 165.30865967 -131.36802734 164.61731934 -131.55761719 163.9050293 C-139.932613 131.57497086 -132.18145758 95.59266345 -115.89306641 67.06103516 C-111.22295155 59.22474073 -105.88154993 51.97258372 -100 45 C-99.48824219 44.36578125 -98.97648437 43.7315625 -98.44921875 43.078125 C-79.18998463 19.61404462 -48.80710061 5.49183048 -19.38671875 0.37109375 C-12.94629905 -0.17373249 -6.46342337 0 0 0 Z " fill="#EBEBEB" transform="translate(471,313)"/>
<path d="M0 0 C14.18729097 3.54682274 14.18729097 3.54682274 21 7 C21.87398438 7.43183594 22.74796875 7.86367188 23.6484375 8.30859375 C45.26602405 19.48070781 60.90249075 39.09989109 69.390625 61.703125 C70.3514891 64.78649487 71.21064333 67.86888521 72 71 C72.21140625 71.73476563 72.4228125 72.46953125 72.640625 73.2265625 C79.3761731 97.37831354 73.69582086 124.12559587 62.06030273 145.79858398 C49.51265515 167.98031968 29.75480145 184.73583537 5.625 193 C2 194 2 194 0 194 C0 129.98 0 65.96 0 0 Z " fill="#D6D6D6" transform="translate(484,469)"/>
<path d="M0 0 C7 0 7 0 8.71264648 1.25341797 C9.28607788 2.11410889 9.28607788 2.11410889 9.87109375 2.9921875 C10.51401367 3.92611328 10.51401367 3.92611328 11.16992188 4.87890625 C11.58822266 5.53761719 12.00652344 6.19632813 12.4375 6.875 C12.88287109 7.52597656 13.32824219 8.17695312 13.78710938 8.84765625 C17 13.63491263 17 13.63491263 17 16 C17.66 16 18.32 16 19 16 C19.38091797 14.94232422 19.38091797 14.94232422 19.76953125 13.86328125 C21.12838984 10.70123888 22.74962077 8.03149958 24.6875 5.1875 C25.33074219 4.21167969 25.97398437 3.23585938 26.63671875 2.23046875 C29 0 29 0 36 0 C36 11.22 36 22.44 36 34 C33.69 34 31.38 34 29 34 C28.67 27.07 28.34 20.14 28 13 C25.36 16.63 22.72 20.26 20 24 C15 23 15 23 12.98046875 20.71484375 C11.3203125 18.14322917 9.66015625 15.57161458 8 13 C7.67 19.93 7.34 26.86 7 34 C4.69 34 2.38 34 0 34 C0 22.78 0 11.56 0 0 Z " fill="#F1F1F1" transform="translate(743,699)"/>
<path d="M0 0 C2.40410482 0.75828396 3.90829515 1.5656881 6 3 C5.01 4.65 4.02 6.3 3 8 C1.96875 7.67 0.9375 7.34 -0.125 7 C-3.48426709 6.0284808 -6.49106202 5.82883229 -10 6 C-10.33 7.65 -10.66 9.3 -11 11 C-10.41992188 11.18175781 -9.83984375 11.36351562 -9.2421875 11.55078125 C4.38787338 15.93669193 4.38787338 15.93669193 7 20 C7.5022999 23.32773681 7.71535126 25.76937657 5.98046875 28.75390625 C3.82282962 31.45910335 2.30932687 32.89689104 -1 34 C-13.38935712 35.00901306 -13.38935712 35.00901306 -17.8125 32 C-18.534375 31.34 -19.25625 30.68 -20 30 C-19.34 28.68 -18.68 27.36 -18 26 C-14 26 -14 26 -12 27 C-10.12620395 27.07033769 -8.24998898 27.0843022 -6.375 27.0625 C-5.37210938 27.05347656 -4.36921875 27.04445313 -3.3359375 27.03515625 C-2.17964844 27.01775391 -2.17964844 27.01775391 -1 27 C-1 25.35 -1 23.7 -1 22 C-2.08667969 21.76216797 -2.08667969 21.76216797 -3.1953125 21.51953125 C-14.06085674 18.89731324 -14.06085674 18.89731324 -18 14 C-19.14351225 9.37550193 -18.59802736 6.08530891 -16.3125 1.9375 C-11.08645371 -1.11924406 -5.90565158 -0.71045433 0 0 Z " fill="#EDEDED" transform="translate(687,699)"/>
<path d="M0 0 C9.15703526 -0.02365369 18.31405929 -0.04117477 27.47111893 -0.05181217 C31.72766483 -0.05692939 35.98418917 -0.06381044 40.24072266 -0.07543945 C58.51586512 -0.12394132 76.77734852 -0.05021332 95.046875 0.44140625 C95.81077797 0.46093794 96.57468094 0.48046963 97.36173248 0.50059319 C99.52095654 0.55731415 101.67989467 0.62024991 103.83886719 0.68579102 C105.05741394 0.72205093 106.27596069 0.75831085 107.53143311 0.79566956 C111.06553206 1.00386044 114.50416304 1.44985881 118 2 C118 2.33 118 2.66 118 3 C92.70137203 3.91174646 67.43454957 4.13041826 42.12109375 4.06866455 C37.34570789 4.05818311 32.57031608 4.05381549 27.79492188 4.04882812 C18.52993321 4.03830354 9.26496955 4.02138417 0 4 C0 2.68 0 1.36 0 0 Z " fill="#FBFBFB" transform="translate(898,714)"/>
<path d="M0 0 C0 1.32 0 2.64 0 4 C-9.37498312 4.03110184 -18.74997347 4.05115084 -28.125 4.0625 C-28.82704182 4.06335602 -29.52908363 4.06421204 -30.25239944 4.06509399 C-59.17818472 4.09619147 -88.08145545 3.67082317 -117 3 C-113.98304944 0.98869963 -113.36384429 0.74475915 -109.97753906 0.68115234 C-109.15777084 0.66128769 -108.33800262 0.64142303 -107.49339294 0.62095642 C-106.59322952 0.60940018 -105.6930661 0.59784393 -104.765625 0.5859375 C-103.80781631 0.56652603 -102.85000763 0.54711456 -101.86317444 0.52711487 C-98.65887553 0.46592174 -95.45456464 0.4199903 -92.25 0.375 C-90.00805318 0.3368727 -87.76610988 0.29853855 -85.52416992 0.26000977 C-57.01925986 -0.19330192 -28.507402 -0.09364233 0 0 Z " fill="#DFDFDE" transform="translate(627,714)"/>
<path d="M0 0 C9.24 0 18.48 0 28 0 C28 1.98 28 3.96 28 6 C24.37 6 20.74 6 17 6 C17 14.91 17 23.82 17 33 C15.02 33 13.04 33 11 33 C11 24.09 11 15.18 11 6 C7.37 6 3.74 6 0 6 C0 4.02 0 2.04 0 0 Z " fill="#EBEBEB" transform="translate(828,699)"/>
<path d="M0 0 C9.15703526 -0.02365369 18.31405929 -0.04117477 27.47111893 -0.05181217 C31.72766483 -0.05692939 35.98418917 -0.06381044 40.24072266 -0.07543945 C58.51586512 -0.12394132 76.77734852 -0.05021332 95.046875 0.44140625 C95.81077797 0.46093794 96.57468094 0.48046963 97.36173248 0.50059319 C99.52095654 0.55731415 101.67989467 0.62024991 103.83886719 0.68579102 C105.05741394 0.72205093 106.27596069 0.75831085 107.53143311 0.79566956 C111.06553206 1.00386044 114.50416304 1.44985881 118 2 C118 2.33 118 2.66 118 3 C97.65975695 3.66677693 77.35389507 4.17637691 57 4 C57 3.67 57 3.34 57 3 C65.415 2.505 65.415 2.505 74 2 C37.37 1.505 37.37 1.505 0 1 C0 0.67 0 0.34 0 0 Z " fill="#BABBBA" transform="translate(898,714)"/>
<path d="M0 0 C0.33 0 0.66 0 1 0 C1.42968661 4.29686609 1.41369759 7.01214548 -1.3125 10.375 C-5.93385592 14.88888253 -10.64512204 14.32143095 -16.8125 14.30078125 C-21.04735449 13.90116876 -22.90741831 12.82750326 -26 10 C-25.34 8.68 -24.68 7.36 -24 6 C-20 6 -20 6 -18 7 C-16.12620395 7.07033769 -14.24998898 7.0843022 -12.375 7.0625 C-11.37210938 7.05347656 -10.36921875 7.04445313 -9.3359375 7.03515625 C-8.17964844 7.01775391 -8.17964844 7.01775391 -7 7 C-6.67 5.35 -6.34 3.7 -6 2 C-4.35 2 -2.7 2 -1 2 C-0.67 1.34 -0.34 0.68 0 0 Z " fill="#B0B0B1" transform="translate(693,719)"/>
<path d="M0 0 C0.66 0 1.32 0 2 0 C1.99777939 0.75310959 1.99555878 1.50621918 1.99327087 2.28215027 C1.97321227 9.38848876 1.95799746 16.4948174 1.94818783 23.60117626 C1.94297503 27.25439349 1.93590653 30.90758728 1.92456055 34.56079102 C1.91367464 38.08803347 1.90771108 41.61525341 1.90512276 45.14251137 C1.90238297 47.13938261 1.89457999 49.13624483 1.88670349 51.13310242 C1.88662796 52.35399063 1.88655243 53.57487885 1.88647461 54.83276367 C1.884254 55.90531906 1.88203339 56.97787445 1.87974548 58.08293152 C1.92101716 60.99281712 1.92101716 60.99281712 2.56959534 63.76045227 C3 66 3 66 2 68 C3.65 68 5.3 68 7 68 C7 68.33 7 68.66 7 69 C4.69 69 2.38 69 0 69 C0 46.23 0 23.46 0 0 Z " fill="#AEAEAD" transform="translate(588,580)"/>
<path d="M0 0 C0.33 0 0.66 0 1 0 C1.33 7.59 1.66 15.18 2 23 C3.32 22.67 4.64 22.34 6 22 C6.33 21.34 6.66 20.68 7 20 C7 24.62 7 29.24 7 34 C4.69 34 2.38 34 0 34 C0 22.78 0 11.56 0 0 Z " fill="#B0AFB0" transform="translate(743,699)"/>
<path d="M0 0 C10.55808656 1.55808656 10.55808656 1.55808656 15 6 C14.67 7.32 14.34 8.64 14 10 C5.585 8.02 5.585 8.02 -3 6 C-2.01 4.02 -1.02 2.04 0 0 Z " fill="#DFDFDF" transform="translate(678,712)"/>
<path d="M0 0 C0.33 0 0.66 0 1 0 C1 11.22 1 22.44 1 34 C-1.31 34 -3.62 34 -6 34 C-6 29.38 -6 24.76 -6 20 C-5.34 21.32 -4.68 22.64 -4 24 C-3.01 24 -2.02 24 -1 24 C-0.67 16.08 -0.34 8.16 0 0 Z " fill="#989999" transform="translate(778,699)"/>
<path d="M0 0 C0.66 0 1.32 0 2 0 C2.66 0.66 3.32 1.32 4 2 C4.66 2.33 5.32 2.66 6 3 C3.69 6.3 1.38 9.6 -1 13 C-2.65 12.67 -4.3 12.34 -6 12 C-7.3125 9.9375 -7.3125 9.9375 -8 8 C-6.8553125 7.4121875 -6.8553125 7.4121875 -5.6875 6.8125 C-2.74308242 4.82673 -1.72532946 3.03986619 0 0 Z " fill="#E8E8E8" transform="translate(764,710)"/>
<path d="M0 0 C0.33 0 0.66 0 1 0 C1.36637589 6.35051546 1.36637589 6.35051546 -0.375 9.4375 C-2 11 -2 11 -4 11 C-4 10.34 -4 9.68 -4 9 C-5.32 8.67 -6.64 8.34 -8 8 C-7.34 6.02 -6.68 4.04 -6 2 C-4.35 2 -2.7 2 -1 2 C-0.67 1.34 -0.34 0.68 0 0 Z " fill="#BCBCBD" transform="translate(693,719)"/>
<path d="M0 0 C0.99 0 1.98 0 3 0 C3.33 2.97 3.66 5.94 4 9 C2.35 9 0.7 9 -1 9 C-0.67 6.03 -0.34 3.06 0 0 Z " fill="#C1C1C2" transform="translate(774,723)"/>
<path d="M0 0 C0.99 0.33 1.98 0.66 3 1 C2.34 1.66 1.68 2.32 1 3 C0.75787127 4.98128508 0.75787127 4.98128508 0.875 7.125 C0.91625 8.40375 0.9575 9.6825 1 11 C1.99 11 2.98 11 4 11 C4 8.69 4 6.38 4 4 C4.33 4 4.66 4 5 4 C5 6.97 5 9.94 5 13 C3.02 13 1.04 13 -1 13 C-1.02686553 11.02090602 -1.04633375 9.04171029 -1.0625 7.0625 C-1.07410156 5.96035156 -1.08570313 4.85820313 -1.09765625 3.72265625 C-1 1 -1 1 0 0 Z " fill="#D0D0D1" transform="translate(840,719)"/>
<path d="M0 0 C0.99 0 1.98 0 3 0 C4.20272819 2.40545638 4.10071472 3.94996953 4.0625 6.625 C4.05347656 7.44226563 4.04445313 8.25953125 4.03515625 9.1015625 C4.02355469 9.72804688 4.01195312 10.35453125 4 11 C3.67 11 3.34 11 3 11 C3 8.69 3 6.38 3 4 C2.01 4 1.02 4 0 4 C-0.33 4.99 -0.66 5.98 -1 7 C-1.04254356 5.00045254 -1.04080783 2.99958364 -1 1 C-0.67 0.67 -0.34 0.34 0 0 Z " fill="#DADADB" transform="translate(774,719)"/>
<path d="M0 0 C0.33 0 0.66 0 1 0 C1 2.31 1 4.62 1 7 C-1.97 6.505 -1.97 6.505 -5 6 C-5.33 4.68 -5.66 3.36 -6 2 C-4.35 2 -2.7 2 -1 2 C-0.67 1.34 -0.34 0.68 0 0 Z " fill="#C9C9CA" transform="translate(693,719)"/>
<path d="M0 0 C0.99 0 1.98 0 3 0 C3 1.32 3 2.64 3 4 C1.68 4.33 0.36 4.66 -1 5 C-1.33 4.01 -1.66 3.02 -2 2 C-1.34 2 -0.68 2 0 2 C0 1.34 0 0.68 0 0 Z " fill="#F1F1F1" transform="translate(675,712)"/>
</svg>
